<svg width="558" height="558" viewBox="0 0 558 558" fill="none" xmlns="http://www.w3.org/2000/svg">
<rect width="558" height="558" rx="279" fill="#F6F6F6"/>
<path d="M432.484 185.484C432.484 184.937 431.937 184.937 431.937 184.391C428.109 178.922 422.641 174 416.078 171.266L297.953 117.125C287.016 112.203 274.984 112.203 264.047 117.125L146.469 171.266C139.906 174 134.984 178.922 130.609 183.844C130.062 184.391 129.516 184.937 128.969 185.484C128.969 186.031 128.422 186.031 128.422 186.578C124.594 193.141 122.406 200.25 122.406 207.906V344.625C122.406 359.938 131.156 374.156 144.828 380.719L262.406 439.781C267.875 442.516 274.437 444.156 280.453 444.156C286.469 444.156 293.031 442.516 298.5 439.781L416.078 380.719C429.75 373.609 438.5 359.938 438.5 344.625V207.906C439.594 199.703 436.859 192.047 432.484 185.484ZM274.437 139.547C276.625 138.453 278.812 137.906 281 137.906C283.188 137.906 285.375 138.453 287.563 139.547L398.031 190.406L281 247.828L163.969 190.406L274.437 139.547ZM155.766 358.844C150.297 356.109 147.016 350.641 147.016 344.625V209.547L268.422 269.156V415.719L155.766 358.844ZM406.234 358.844L293.031 415.719V269.156L414.438 209.547V344.625C414.984 350.641 411.156 356.109 406.234 358.844Z" fill="#4F3EC0"/>
<rect x="269" y="23" width="23" height="113" rx="11.5" fill="#4F3EC0"/>
<rect x="412.094" y="368.371" width="23" height="113" rx="11.5" transform="rotate(-64 412.094 368.371)" fill="#4F3EC0"/>
<rect x="136.564" y="348" width="23" height="113" rx="11.5" transform="rotate(64 136.564 348)" fill="#4F3EC0"/>
</svg>
