<svg width="489" height="431" viewBox="0 0 489 431" fill="none" xmlns="http://www.w3.org/2000/svg">
<path d="M397.484 162.484C397.484 161.937 396.938 161.937 396.938 161.391C393.109 155.922 387.641 151 381.078 148.266L262.953 94.125C252.016 89.2031 239.984 89.2031 229.047 94.125L111.469 148.266C104.906 151 99.9844 155.922 95.6094 160.844C95.0625 161.391 94.5156 161.937 93.9688 162.484C93.9688 163.031 93.4219 163.031 93.4219 163.578C89.5938 170.141 87.4063 177.25 87.4063 184.906V321.625C87.4063 336.938 96.1563 351.156 109.828 357.719L227.406 416.781C232.875 419.516 239.438 421.156 245.453 421.156C251.469 421.156 258.031 419.516 263.5 416.781L381.078 357.719C394.75 350.609 403.5 336.938 403.5 321.625V184.906C404.594 176.703 401.859 169.047 397.484 162.484ZM239.438 116.547C241.625 115.453 243.813 114.906 246 114.906C248.188 114.906 250.375 115.453 252.563 116.547L363.031 167.406L246 224.828L128.969 167.406L239.438 116.547ZM120.766 335.844C115.297 333.109 112.016 327.641 112.016 321.625V186.547L233.422 246.156V392.719L120.766 335.844ZM371.234 335.844L258.031 392.719V246.156L379.438 186.547V321.625C379.984 327.641 376.156 333.109 371.234 335.844Z" fill="#4F3EC0"/>
<rect x="234" width="23" height="113" rx="11.5" fill="#4F3EC0"/>
<rect x="377.094" y="345.371" width="23" height="113" rx="11.5" transform="rotate(-64 377.094 345.371)" fill="#4F3EC0"/>
<rect x="101.564" y="325" width="23" height="113" rx="11.5" transform="rotate(64 101.564 325)" fill="#4F3EC0"/>
</svg>
